<mxfile host="app.diagrams.net" agent="Mozilla/5.0 (Windows NT 10.0; Win64; x64) AppleWebKit/537.36 (KHTML, like Gecko) Chrome/138.0.0.0 Safari/537.36" version="27.2.0">
  <diagram name="Page-1" id="WFDi1R9LGKmqpybWGIPr">
    <mxGraphModel dx="1111" dy="439" grid="1" gridSize="10" guides="1" tooltips="1" connect="1" arrows="1" fold="1" page="1" pageScale="1" pageWidth="850" pageHeight="1100" math="0" shadow="0">
      <root>
        <mxCell id="0" />
        <mxCell id="1" parent="0" />
        <mxCell id="g6VmP9B4iMw3VE0Ckpao-1" value="" style="rounded=0;whiteSpace=wrap;html=1;" vertex="1" parent="1">
          <mxGeometry x="230" y="90" width="390" height="330" as="geometry" />
        </mxCell>
        <mxCell id="g6VmP9B4iMw3VE0Ckpao-8" value="" style="rounded=0;orthogonalLoop=1;jettySize=auto;html=1;" edge="1" parent="1" source="g6VmP9B4iMw3VE0Ckpao-2" target="g6VmP9B4iMw3VE0Ckpao-3">
          <mxGeometry relative="1" as="geometry" />
        </mxCell>
        <mxCell id="g6VmP9B4iMw3VE0Ckpao-2" value="" style="sketch=0;outlineConnect=0;fontColor=#232F3E;gradientColor=none;fillColor=#232F3D;strokeColor=none;dashed=0;verticalLabelPosition=bottom;verticalAlign=top;align=center;html=1;fontSize=12;fontStyle=0;aspect=fixed;pointerEvents=1;shape=mxgraph.aws4.client;" vertex="1" parent="1">
          <mxGeometry x="50" y="133.5" width="78" height="76" as="geometry" />
        </mxCell>
        <mxCell id="g6VmP9B4iMw3VE0Ckpao-3" value="Amazon Cloudfront" style="sketch=0;outlineConnect=0;fontColor=#232F3E;gradientColor=none;strokeColor=#ffffff;fillColor=#232F3E;dashed=0;verticalLabelPosition=middle;verticalAlign=bottom;align=center;html=1;whiteSpace=wrap;fontSize=10;fontStyle=1;spacing=3;shape=mxgraph.aws4.productIcon;prIcon=mxgraph.aws4.cloudfront;" vertex="1" parent="1">
          <mxGeometry x="250" y="125" width="80" height="93" as="geometry" />
        </mxCell>
        <mxCell id="g6VmP9B4iMw3VE0Ckpao-4" value="" style="sketch=0;points=[[0,0,0],[0.25,0,0],[0.5,0,0],[0.75,0,0],[1,0,0],[0,1,0],[0.25,1,0],[0.5,1,0],[0.75,1,0],[1,1,0],[0,0.25,0],[0,0.5,0],[0,0.75,0],[1,0.25,0],[1,0.5,0],[1,0.75,0]];outlineConnect=0;fontColor=#232F3E;fillColor=#7AA116;strokeColor=#ffffff;dashed=0;verticalLabelPosition=bottom;verticalAlign=top;align=center;html=1;fontSize=12;fontStyle=0;aspect=fixed;shape=mxgraph.aws4.resourceIcon;resIcon=mxgraph.aws4.s3;" vertex="1" parent="1">
          <mxGeometry x="520" y="132.5" width="78" height="78" as="geometry" />
        </mxCell>
        <mxCell id="g6VmP9B4iMw3VE0Ckpao-5" value="" style="sketch=0;outlineConnect=0;fontColor=#232F3E;gradientColor=none;fillColor=#E7157B;strokeColor=none;dashed=0;verticalLabelPosition=bottom;verticalAlign=top;align=center;html=1;fontSize=12;fontStyle=0;aspect=fixed;pointerEvents=1;shape=mxgraph.aws4.cloudwatch_metrics_insights;" vertex="1" parent="1">
          <mxGeometry x="387" y="290" width="77" height="78" as="geometry" />
        </mxCell>
        <mxCell id="g6VmP9B4iMw3VE0Ckpao-12" style="rounded=0;orthogonalLoop=1;jettySize=auto;html=1;entryX=0;entryY=0.5;entryDx=0;entryDy=0;entryPerimeter=0;" edge="1" parent="1" source="g6VmP9B4iMw3VE0Ckpao-3" target="g6VmP9B4iMw3VE0Ckpao-4">
          <mxGeometry relative="1" as="geometry" />
        </mxCell>
        <mxCell id="g6VmP9B4iMw3VE0Ckpao-16" value="" style="html=1;labelBackgroundColor=#ffffff;startArrow=none;startFill=0;startSize=6;endArrow=classic;endFill=1;endSize=6;jettySize=auto;orthogonalLoop=1;strokeWidth=1;dashed=1;fontSize=14;rounded=0;" edge="1" parent="1" source="g6VmP9B4iMw3VE0Ckpao-3" target="g6VmP9B4iMw3VE0Ckpao-5">
          <mxGeometry width="60" height="60" relative="1" as="geometry">
            <mxPoint x="400" y="260" as="sourcePoint" />
            <mxPoint x="460" y="200" as="targetPoint" />
            <Array as="points">
              <mxPoint x="290" y="330" />
            </Array>
          </mxGeometry>
        </mxCell>
        <mxCell id="g6VmP9B4iMw3VE0Ckpao-21" value="&lt;font style=&quot;font-size: 14px;&quot;&gt;CloudFront&lt;/font&gt;" style="edgeLabel;html=1;align=center;verticalAlign=middle;resizable=0;points=[];" vertex="1" connectable="0" parent="g6VmP9B4iMw3VE0Ckpao-16">
          <mxGeometry x="-0.8758" y="1" relative="1" as="geometry">
            <mxPoint as="offset" />
          </mxGeometry>
        </mxCell>
        <mxCell id="g6VmP9B4iMw3VE0Ckpao-17" value="" style="html=1;labelBackgroundColor=#ffffff;startArrow=none;startFill=0;startSize=6;endArrow=classic;endFill=1;endSize=6;jettySize=auto;orthogonalLoop=1;strokeWidth=1;dashed=1;fontSize=14;rounded=0;exitX=0.5;exitY=1;exitDx=0;exitDy=0;exitPerimeter=0;" edge="1" parent="1" source="g6VmP9B4iMw3VE0Ckpao-4" target="g6VmP9B4iMw3VE0Ckpao-5">
          <mxGeometry width="60" height="60" relative="1" as="geometry">
            <mxPoint x="400" y="260" as="sourcePoint" />
            <mxPoint x="460" y="200" as="targetPoint" />
            <Array as="points">
              <mxPoint x="560" y="330" />
            </Array>
          </mxGeometry>
        </mxCell>
        <mxCell id="g6VmP9B4iMw3VE0Ckpao-20" value="&lt;font style=&quot;font-size: 14px;&quot;&gt;S3 bucket&lt;/font&gt;" style="edgeLabel;html=1;align=center;verticalAlign=middle;resizable=0;points=[];" vertex="1" connectable="0" parent="g6VmP9B4iMw3VE0Ckpao-17">
          <mxGeometry x="-0.81" y="1" relative="1" as="geometry">
            <mxPoint x="-1" as="offset" />
          </mxGeometry>
        </mxCell>
        <mxCell id="g6VmP9B4iMw3VE0Ckpao-22" value="&lt;font style=&quot;font-size: 14px;&quot;&gt;Client&lt;/font&gt;" style="text;html=1;align=center;verticalAlign=middle;resizable=0;points=[];autosize=1;strokeColor=none;fillColor=none;" vertex="1" parent="1">
          <mxGeometry x="50" y="208" width="60" height="30" as="geometry" />
        </mxCell>
        <mxCell id="g6VmP9B4iMw3VE0Ckpao-25" value="&lt;font style=&quot;font-size: 14px;&quot;&gt;CloudWatch Metrics&lt;/font&gt;" style="text;html=1;align=center;verticalAlign=middle;whiteSpace=wrap;rounded=0;" vertex="1" parent="1">
          <mxGeometry x="370" y="380" width="110" height="30" as="geometry" />
        </mxCell>
      </root>
    </mxGraphModel>
  </diagram>
</mxfile>
